<svg xmlns="http://www.w3.org/2000/svg" width="16.709" height="22.279" viewBox="0 0 16.709 22.279"><path d="M8.354,0A8.372,8.372,0,0,0,0,8.37C0,15.281,7.8,21.917,8.13,22.2a.348.348,0,0,0,.446,0c.332-.274,8.133-6.8,8.133-13.829A8.372,8.372,0,0,0,8.354,0Zm0,21.47C7.074,20.324.7,14.327.7,8.37a7.658,7.658,0,1,1,15.317,0C16.013,14.428,9.641,20.34,8.356,21.47Zm0-17.292a4.177,4.177,0,1,0,4.177,4.177A4.181,4.181,0,0,0,8.354,4.177Zm0,7.658a3.481,3.481,0,1,1,3.481-3.481A3.485,3.485,0,0,1,8.354,11.836Z" fill="#434343"/></svg>