<svg xmlns="http://www.w3.org/2000/svg" width="22" height="29.162" viewBox="0 0 22 29.162"><g transform="translate(276 -469)"><g transform="translate(-276 469)"><g transform="translate(0)" fill="none"><path d="M11,0A11,11,0,0,1,22,11c0,6.075-10.333,18.162-10.333,18.162S0,17.075,0,11A11,11,0,0,1,11,0Z" stroke="none"/><path d="M 11 1.499996185302734 C 5.761680603027344 1.499996185302734 1.5 5.761676788330078 1.5 10.99999618530273 C 1.5 12.22505569458008 2.215230941772461 15.20809555053711 7.00531005859375 21.4223461151123 C 8.740999221801758 23.67408561706543 10.49403953552246 25.66967010498047 11.59835624694824 26.88469696044922 C 12.57442855834961 25.66967391967773 14.08939933776855 23.71740531921387 15.59514999389648 21.51327514648438 C 18.75809097290039 16.88332557678223 20.5 13.14963531494141 20.5 10.99999618530273 C 20.5 5.761676788330078 16.23831939697266 1.499996185302734 11 1.499996185302734 M 11 -3.814697265625e-06 C 17.07513046264648 -3.814697265625e-06 22 4.92486572265625 22 10.99999618530273 C 22 17.07512664794922 11.66744041442871 29.1624755859375 11.66744041442871 29.1624755859375 C 11.66744041442871 29.1624755859375 0 17.07512664794922 0 10.99999618530273 C 0 4.92486572265625 4.924869537353516 -3.814697265625e-06 11 -3.814697265625e-06 Z" stroke="none" fill="#fff"/></g><g transform="translate(5.656 5.793)" fill="#fff"><path d="M 5.632486820220947 11.13997650146484 C 2.595646858215332 11.13997650146484 0.1249968186020851 8.669326782226563 0.1249968186020851 5.632486820220947 C 0.1249968186020851 2.595646858215332 2.595646858215332 0.1249968186020851 5.632486820220947 0.1249968186020851 C 8.669326782226563 0.1249968186020851 11.13997650146484 2.595646858215332 11.13997650146484 5.632486820220947 C 11.13997650146484 8.669326782226563 8.669326782226563 11.13997650146484 5.632486820220947 11.13997650146484 Z" stroke="none"/><path d="M 5.632486820220947 0.2499971389770508 C 2.664566993713379 0.2499971389770508 0.2499971389770508 2.664566993713379 0.2499971389770508 5.632486820220947 C 0.2499971389770508 8.600406646728516 2.664566993713379 11.01497650146484 5.632486820220947 11.01497650146484 C 8.600406646728516 11.01497650146484 11.01497650146484 8.600406646728516 11.01497650146484 5.632486820220947 C 11.01497650146484 2.664566993713379 8.600406646728516 0.2499971389770508 5.632486820220947 0.2499971389770508 M 5.632486820220947 -2.86102294921875e-06 C 8.743227005004883 -2.86102294921875e-06 11.26497650146484 2.521746635437012 11.26497650146484 5.632486820220947 C 11.26497650146484 8.743227005004883 8.743227005004883 11.26497650146484 5.632486820220947 11.26497650146484 C 2.521746635437012 11.26497650146484 -2.86102294921875e-06 8.743227005004883 -2.86102294921875e-06 5.632486820220947 C -2.86102294921875e-06 2.521746635437012 2.521746635437012 -2.86102294921875e-06 5.632486820220947 -2.86102294921875e-06 Z" stroke="none" fill="#fff"/></g><g transform="translate(5.88 4.683)"><path d="M0-2.18,2.149-3.846,4.333-2.18,3.436.065H.824Z" transform="translate(3.242 8.488)" fill="#434343"/><path d="M0,1.666,2.149,0,3.1.724a7.512,7.512,0,0,1-.617,1.4A6.862,6.862,0,0,1,1.174,3.638L.8,3.809Z" transform="matrix(0.616, -0.788, 0.788, 0.616, 7.299, 5.368)" fill="#434343"/><path d="M0,1.666,2.149,0,3.1.724a4.032,4.032,0,0,1-.483,1.528A8.132,8.132,0,0,1,1.37,3.8l-.546.111Z" transform="translate(4.542 4.638) rotate(-120)" fill="#434343"/><path d="M0,1.666,2.149,0l.528.555A3.848,3.848,0,0,1,2.269,2.29c-.432.769-.9,1.51-.9,1.51l-.546.111Z" transform="translate(2.677 6.874) rotate(-180)" fill="#434343"/><path d="M0,1.84,2.237,0l.312.867a3.264,3.264,0,0,1-.068,2.051c-.432.769-.294.9-.294.9L.824,4.085Z" transform="translate(5.585 10.023) rotate(120)" fill="#434343"/><path d="M0,1.666,2.149,0,3.1.724a4.032,4.032,0,0,1-.483,1.528,12.662,12.662,0,0,1-1.1,1.573l-.694.087Z" transform="translate(7.698 7.65) rotate(30)" fill="#434343"/></g></g></g></svg>