<svg xmlns="http://www.w3.org/2000/svg" width="68.048" height="53.113" viewBox="0 0 68.048 53.113">
  <path id="map" d="M15.334,52.992c.015.01.035,0,.05.015a.847.847,0,0,0,.383.106.83.83,0,0,0,.219-.03L34.025,48.16l18.039,4.923a.83.83,0,0,0,.219.03.817.817,0,0,0,.382-.108c.017-.008.035,0,.05-.015l14.938-9.129a.832.832,0,0,0,.365-.934L59.745,13.881a.828.828,0,0,0-.481-.541.845.845,0,0,0-.724.043L50.3,18a.831.831,0,1,0,.815,1.447l7.318-4.108,7.813,27.43L52.947,50.9l-3.16-25.28a.84.84,0,0,0-.928-.72.831.831,0,0,0-.72.926L51.3,51.156l-16.448-4.49V42.135a.83.83,0,0,0-1.66,0v4.531l-16.45,4.49L19.91,25.83a.83.83,0,0,0-1.648-.206L15.1,50.9,1.8,42.774,9.613,15.346l7.318,4.108a.831.831,0,1,0,.815-1.447L9.509,13.385a.829.829,0,0,0-1.2.5L.033,42.929a.826.826,0,0,0,.365.934l14.936,9.129ZM33.463,38.786a.833.833,0,0,0,1.12,0c.553-.5,13.55-12.43,13.55-24.683a14.108,14.108,0,1,0-28.216,0C19.917,26.148,32.91,38.275,33.463,38.786ZM34.025,1.66A12.176,12.176,0,0,1,46.474,14.108c0,10.12-9.947,20.477-12.443,22.917-2.491-2.468-12.453-12.961-12.453-22.917A12.176,12.176,0,0,1,34.025,1.66Zm7.469,12.448a7.469,7.469,0,1,0-7.469,7.469A7.478,7.478,0,0,0,41.494,14.108Zm-7.469,5.809a5.809,5.809,0,1,1,5.809-5.809A5.816,5.816,0,0,1,34.025,19.917Z" transform="translate(0)" fill="#378a96"/>
</svg>
