<svg xmlns="http://www.w3.org/2000/svg" width="68" height="68.023" viewBox="0 0 68 68.023"><g transform="translate(-133 -124.899)"><g transform="translate(133 124.899)"><path d="M53.371,68.023,32.1,50.566H7.111A7.1,7.1,0,0,1,.082,43.413V7.153A7.1,7.1,0,0,1,7.111,0H61.053a7.1,7.1,0,0,1,7.029,7.153v36.26a7.1,7.1,0,0,1-7.029,7.153H53.371ZM7.111,4.25a2.847,2.847,0,0,0-2.779,2.9v36.26a2.847,2.847,0,0,0,2.779,2.9H33.617l15.5,12.721V46.316H61.053a2.847,2.847,0,0,0,2.779-2.9V7.153a2.847,2.847,0,0,0-2.779-2.9Z" transform="translate(-0.082)" fill="#fff"/></g><g transform="translate(140.854 138.02)"><rect width="51.736" height="4.109" rx="2" fill="#fff"/></g><g transform="translate(140.854 146.02)"><rect width="36.987" height="4.109" rx="2" fill="#fff"/></g><g transform="translate(140.854 154.02)"><rect width="23.093" height="4.109" rx="2" fill="#fff"/></g></g></svg>