<svg xmlns="http://www.w3.org/2000/svg" width="20.474" height="19.834" viewBox="0 0 20.474 19.834"><path d="M20.4,8.394a1.473,1.473,0,0,0-1.18-.967l-5.327-.792L11.575,1.828a1.5,1.5,0,0,0-2.677,0L6.583,6.635l-5.328.792a1.471,1.471,0,0,0-1.179.967A1.412,1.412,0,0,0,.421,9.856l3.9,3.9-.905,5.407a1.423,1.423,0,0,0,.607,1.409,1.51,1.51,0,0,0,1.567.084l4.644-2.5,4.645,2.5a1.51,1.51,0,0,0,1.567-.084,1.424,1.424,0,0,0,.606-1.409l-.906-5.407,3.905-3.9A1.416,1.416,0,0,0,20.4,8.394Zm-5.306,4.354a1.418,1.418,0,0,0-.4,1.237l.906,5.407-4.645-2.5a1.512,1.512,0,0,0-1.43,0l-4.645,2.5.906-5.407a1.415,1.415,0,0,0-.4-1.237l-3.9-3.9,5.327-.793A1.475,1.475,0,0,0,7.92,7.246L10.237,2.44l2.316,4.807a1.478,1.478,0,0,0,1.115.811L19,8.852l-3.9,3.9Z" transform="translate(0 -1)" fill="#434343"/></svg>