<svg xmlns="http://www.w3.org/2000/svg" width="10.616" height="11.108" viewBox="0 0 10.616 11.108"><g transform="translate(-11.329)"><g transform="translate(11.329)"><path d="M18.35,6.4,19.4,2.794h-.6l-.208.747a1.524,1.524,0,0,0-.4-.616,1.627,1.627,0,0,0-1.144-.392,2.217,2.217,0,0,0-1.265.386,3.485,3.485,0,0,0-.95.964,4.94,4.94,0,0,0-.805,2.64,2.638,2.638,0,0,0,.1.718,1.782,1.782,0,0,0,.322.636A1.7,1.7,0,0,0,15,8.327a1.759,1.759,0,0,0,.809.175,1.96,1.96,0,0,0,.724-.133,2.624,2.624,0,0,0,.589-.321,2.332,2.332,0,0,0,.454-.439l.071-.093a.972.972,0,0,0,.324.649,1.491,1.491,0,0,0,1,.337,2.692,2.692,0,0,0,1.279-.3,2.726,2.726,0,0,0,.934-.816,3.806,3.806,0,0,0,.566-1.218,5.607,5.607,0,0,0,.194-1.5,4.551,4.551,0,0,0-.382-1.859,4.442,4.442,0,0,0-1.07-1.487A4.979,4.979,0,0,0,18.868.348,5.877,5.877,0,0,0,16.818,0a5.4,5.4,0,0,0-2.157.431,5.508,5.508,0,0,0-3.332,5.108,5.849,5.849,0,0,0,.4,2.166,5.427,5.427,0,0,0,1.129,1.767,5.282,5.282,0,0,0,1.754,1.2,5.748,5.748,0,0,0,2.27.438,5.5,5.5,0,0,0,2.48-.564,6.034,6.034,0,0,0,1.926-1.512l.089-.1-.428-.37-.091.108a5.536,5.536,0,0,1-1.731,1.349,4.893,4.893,0,0,1-2.246.527,5.067,5.067,0,0,1-2.015-.394A4.763,4.763,0,0,1,13.3,9.07a4.862,4.862,0,0,1-1.014-1.591,5.255,5.255,0,0,1-.36-1.94,4.953,4.953,0,0,1,.366-1.873,5.153,5.153,0,0,1,1.015-1.593,4.888,4.888,0,0,1,1.542-1.1A4.693,4.693,0,0,1,16.811.568a5.159,5.159,0,0,1,1.8.31,4.429,4.429,0,0,1,1.439.863,4.016,4.016,0,0,1,.951,1.3,3.89,3.89,0,0,1,.342,1.629A5.319,5.319,0,0,1,21.207,5.9a3.406,3.406,0,0,1-.431,1.044,2.244,2.244,0,0,1-.736.723,2.041,2.041,0,0,1-1.072.27.933.933,0,0,1-.556-.161.62.62,0,0,1-.2-.539,2.3,2.3,0,0,1,.042-.4A4.317,4.317,0,0,1,18.35,6.4ZM18.066,5.4a5.393,5.393,0,0,1-.459,1.171,3.659,3.659,0,0,1-.746.976,1.387,1.387,0,0,1-.977.39,1.119,1.119,0,0,1-.954-.387,1.609,1.609,0,0,1-.312-1.008,4.38,4.38,0,0,1,.169-1.158,4.34,4.34,0,0,1,.484-1.122,2.921,2.921,0,0,1,.767-.836,1.671,1.671,0,0,1,1-.321,1.271,1.271,0,0,1,.534.1.968.968,0,0,1,.355.279,1.275,1.275,0,0,1,.215.424,1.814,1.814,0,0,1,.074.518A4.1,4.1,0,0,1,18.066,5.4Z" transform="translate(-11.329)" fill="#9f9f9f"/></g></g></svg>