<svg xmlns="http://www.w3.org/2000/svg" width="19.819" height="25" viewBox="0 0 19.819 25"><path d="M18.843,17.236a.977.977,0,0,0,.977-.977V6.348a3.911,3.911,0,0,0-3.906-3.906H12.837V.977A.977.977,0,0,0,11.86,0H7.954a.976.976,0,0,0-.977.977V2.441H3.907A3.911,3.911,0,0,0,0,6.348V21.094A3.911,3.911,0,0,0,3.907,25H15.913a3.911,3.911,0,0,0,3.906-3.906.977.977,0,0,0-1.953,0,1.955,1.955,0,0,1-1.953,1.953H3.907a1.955,1.955,0,0,1-1.953-1.953V6.348A1.955,1.955,0,0,1,3.907,4.395H6.977v.488a2.93,2.93,0,1,0,5.859,0V4.395h3.076a1.955,1.955,0,0,1,1.953,1.953V16.26A.976.976,0,0,0,18.843,17.236ZM10.884,4.883a.977.977,0,1,1-1.953,0V1.953h1.953Zm4.268,6.232a.977.977,0,0,1,.245,1.359l-4.345,6.26c-.013.019-.027.037-.041.055a2.517,2.517,0,0,1-1.79.933c-.055,0-.111.006-.166.006a2.518,2.518,0,0,1-1.732-.692l-.014-.013L4.728,16.469A.977.977,0,1,1,6.1,15.08l2.573,2.545a.558.558,0,0,0,.8-.039l4.321-6.225a.977.977,0,0,1,1.359-.245Zm0,0" fill="#fff"/></svg>