<svg xmlns="http://www.w3.org/2000/svg" width="11.33" height="15.107" viewBox="0 0 11.33 15.107"><path d="M5.665,0A5.677,5.677,0,0,0,0,5.675c0,4.686,5.288,9.186,5.513,9.376a.236.236,0,0,0,.3,0c.225-.186,5.515-4.609,5.515-9.378A5.677,5.677,0,0,0,5.665,0Zm0,14.558C4.8,13.782.472,9.715.472,5.675a5.193,5.193,0,1,1,10.386,0C10.858,9.784,6.537,13.792,5.666,14.558Zm0-11.726A2.833,2.833,0,1,0,8.5,5.665,2.835,2.835,0,0,0,5.665,2.833Zm0,5.193a2.36,2.36,0,1,1,2.36-2.36A2.363,2.363,0,0,1,5.665,8.025Z" fill="#9f9f9f"/></svg>