<svg xmlns="http://www.w3.org/2000/svg" width="30.036" height="24.624" viewBox="0 0 30.036 24.624"><path d="M20.4,0H4.225A4.229,4.229,0,0,0,0,4.224V25.811a4.23,4.23,0,0,0,4.225,4.225H20.4a4.23,4.23,0,0,0,4.225-4.225V4.224A4.229,4.229,0,0,0,20.4,0ZM1.233,4.224A3,3,0,0,1,4.225,1.233H7.984V3.49a.616.616,0,1,0,1.233,0V1.233h6.191V8.724a1.032,1.032,0,0,1-.044.3c-.005.015-.011.03-.015.045a1.033,1.033,0,0,1-.973.689H10.248a1.033,1.033,0,0,1-.973-.689c0-.015-.009-.031-.015-.045a1.021,1.021,0,0,1-.044-.3V6.369a.616.616,0,0,0-1.233,0v2.25H7.7a5.871,5.871,0,0,0-5.354,3.475.26.26,0,0,1-.238.153H1.233ZM7.984,28.8H4.225a3,3,0,0,1-2.992-2.992V17.789h.876a.26.26,0,0,1,.238.153A5.872,5.872,0,0,0,7.7,21.417h.283Zm15.408-2.992A3,3,0,0,1,20.4,28.8H16.64V26.324a.616.616,0,0,0-1.233,0V28.8H9.216V21.312a1.032,1.032,0,0,1,.044-.3c.005-.015.011-.03.015-.046a1.033,1.033,0,0,1,.972-.689h4.129a1.033,1.033,0,0,1,.973.689c0,.015.009.031.015.046a1.032,1.032,0,0,1,.043.3v2.134a.616.616,0,0,0,1.233,0V21.417h.283a5.871,5.871,0,0,0,5.354-3.475.26.26,0,0,1,.238-.152h.876Zm0-9.255h-.876a1.494,1.494,0,0,0-1.364.883,4.637,4.637,0,0,1-4.229,2.745h-.584a2.266,2.266,0,0,0-1.963-1.137H10.248a2.265,2.265,0,0,0-1.963,1.137H7.7a4.637,4.637,0,0,1-4.229-2.745,1.494,1.494,0,0,0-1.364-.883H1.233V13.479h.876A1.494,1.494,0,0,0,3.472,12.6,4.637,4.637,0,0,1,7.7,9.852h.584a2.266,2.266,0,0,0,1.963,1.136h4.129a2.265,2.265,0,0,0,1.963-1.136h.584A4.637,4.637,0,0,1,21.152,12.6a1.494,1.494,0,0,0,1.364.883h.876Zm0-4.31h-.876a.26.26,0,0,1-.238-.152,5.871,5.871,0,0,0-5.354-3.475H16.64V1.233H20.4a3,3,0,0,1,2.992,2.992Zm0,0" transform="translate(30.036) rotate(90)" fill="#434343"/></svg>