<svg xmlns="http://www.w3.org/2000/svg" width="25.977" height="21.445" viewBox="0 0 25.977 21.445"><g transform="translate(0.509 0.5)"><path d="M3650.3,858.959s-1.709,3.588-3.759,5.125-5.809,0-5.809,0-8.319,8.243-9.738,10.934-1.018,4.782,2.1,4.073,20.973-8.6,21.729-10.723.425-6.424-3.354-7.747" transform="translate(-3630.21 -858.959)" fill="none" stroke="#434343" stroke-linecap="round" stroke-width="1"/><path d="M3657.2,865.166s-3.685,2.173-4.015,3.921a12.5,12.5,0,0,0,.614,4.677" transform="translate(-3635.471 -860.385)" fill="none" stroke="#434343" stroke-linecap="round" stroke-width="1"/><path d="M3640.514,869.458l3.265,3.265" transform="translate(-3632.577 -861.37)" fill="none" stroke="#434343" stroke-linecap="round" stroke-width="1"/><path d="M3640.514,869.458l3.265,3.265" transform="translate(-3634.118 -859.83)" fill="none" stroke="#434343" stroke-linecap="round" stroke-width="1"/><path d="M3640.514,869.458l2.42,2.525" transform="translate(-3635.658 -857.519)" fill="none" stroke="#434343" stroke-linecap="round" stroke-width="1"/><line x2="0.77" y2="2.311" transform="translate(22.563 11.201)" fill="none" stroke="#434343" stroke-linecap="round" stroke-width="1"/><line x2="0.77" y2="2.311" transform="translate(20.252 12.742)" fill="none" stroke="#434343" stroke-linecap="round" stroke-width="1"/><line x2="0.77" y2="2.311" transform="translate(14.089 15.823)" fill="none" stroke="#434343" stroke-linecap="round" stroke-width="1"/><line x2="0.77" y2="2.311" transform="translate(11.778 16.594)" fill="none" stroke="#434343" stroke-linecap="round" stroke-width="1"/><line x2="0.77" y2="1.541" transform="translate(9.467 18.134)" fill="none" stroke="#434343" stroke-linecap="round" stroke-width="1"/><line x2="17.718" transform="translate(0.223 20.445)" fill="none" stroke="#434343" stroke-linecap="round" stroke-width="1"/><path d="M1.11,0H3.336" transform="translate(19.226 20.445)" fill="#434343" stroke="#434343" stroke-linecap="round" stroke-width="1"/></g></svg>