<svg xmlns="http://www.w3.org/2000/svg" width="22.06" height="22.235" viewBox="0 0 22.06 22.235"><g transform="translate(-41.94 -354.765)"><g transform="translate(23 61)"><g transform="translate(0 -2)"><g transform="translate(21 298)" fill="#fff" stroke="#707070" stroke-width="1" opacity="0"><rect width="20" height="20" stroke="none"/><rect x="0.5" y="0.5" width="19" height="19" fill="none"/></g></g><g transform="translate(0 -2.295)"><path d="M3657.79,2210.489h-3.435v-6.7h3.435" transform="translate(-3617.99 -1899.159)" fill="none" stroke="#434343" stroke-width="0.5"/><g transform="translate(27.345 304.232)" fill="none" stroke="#434343" stroke-width="0.5"><ellipse cx="3.524" cy="3.524" rx="3.524" ry="3.524" stroke="none"/><ellipse cx="3.524" cy="3.524" rx="3.274" ry="3.274" fill="none"/></g><g transform="translate(21.471 301.295)" fill="none" stroke="#434343" stroke-width="0.5"><rect width="18.796" height="13.51" rx="2" stroke="none"/><rect x="0.25" y="0.25" width="18.296" height="13.01" rx="1.75" fill="none"/></g><line y2="13.51" transform="translate(31.163 301.589)" fill="none" stroke="#434343" stroke-width="0.5"/><path d="M3.435,6.7H0V0H3.435" transform="translate(25.115 311.33) rotate(180)" fill="none" stroke="#434343" stroke-width="0.5"/></g></g><g transform="translate(-43 28)"><g transform="translate(77.671 326.765)"><g transform="translate(7.269 0)"><g transform="translate(0 1.096)" fill="#fff" stroke="#434343" stroke-width="1"><ellipse cx="5.564" cy="5.564" rx="5.564" ry="5.564" stroke="none"/><ellipse cx="5.564" cy="5.564" rx="5.064" ry="5.064" fill="none"/></g><g transform="translate(0.221 0)"><path d="M0-2.2,2.123-3.846,4.28-2.2,3.394.018H.814Z" transform="translate(3.202 8.432)" fill="#434343"/><path d="M0,1.646,2.123,0l.937.715A7.42,7.42,0,0,1,2.45,2.1a6.779,6.779,0,0,1-1.291,1.5l-.369.169Z" transform="matrix(0.616, -0.788, 0.788, 0.616, 7.21, 5.303)" fill="#434343"/><path d="M0,1.646,2.123,0l.937.715a3.983,3.983,0,0,1-.477,1.509,8.033,8.033,0,0,1-1.228,1.53l-.539.11Z" transform="translate(4.486 4.581) rotate(-120)" fill="#434343"/><path d="M0,1.646,2.123,0l.522.548a3.8,3.8,0,0,1-.4,1.714c-.426.76-.887,1.492-.887,1.492l-.539.11Z" transform="translate(2.644 6.79) rotate(-180)" fill="#434343"/><path d="M0,1.817,2.21,0l.308.856a3.224,3.224,0,0,1-.067,2.026c-.426.76-.29.893-.29.893l-1.346.26Z" transform="translate(5.517 9.901) rotate(120)" fill="#434343"/><path d="M0,1.646,2.123,0l.937.715a3.983,3.983,0,0,1-.477,1.509A12.507,12.507,0,0,1,1.5,3.778l-.685.086Z" transform="translate(7.604 7.556) rotate(30)" fill="#434343"/></g></g></g></g></g></svg>