<svg xmlns="http://www.w3.org/2000/svg" width="28" height="28" viewBox="0 0 28 28"><g transform="translate(0 0)" fill="#fff" stroke="#707070" stroke-width="1" opacity="0"><rect width="28" height="28" stroke="none"/><rect x="0.5" y="0.5" width="27" height="27" fill="none"/></g><path d="M19.736,8.235l-1.99-.4A7.857,7.857,0,0,0,17.4,7l1.127-1.691a1.3,1.3,0,0,0-.162-1.638L17.113,2.42a1.3,1.3,0,0,0-1.638-.162L13.784,3.385a7.852,7.852,0,0,0-.838-.348l-.4-1.99A1.3,1.3,0,0,0,11.273,0H9.507A1.3,1.3,0,0,0,8.233,1.046l-.4,1.99A7.853,7.853,0,0,0,7,3.385L5.307,2.258a1.3,1.3,0,0,0-1.639.162L2.419,3.67a1.3,1.3,0,0,0-.162,1.638L3.383,7a7.786,7.786,0,0,0-.348.838l-1.991.4A1.3,1.3,0,0,0,0,9.509v1.766a1.3,1.3,0,0,0,1.044,1.274l1.99.4a7.853,7.853,0,0,0,.348.837L2.257,15.476a1.3,1.3,0,0,0,.162,1.638l1.249,1.249a1.3,1.3,0,0,0,1.638.162L7,17.4a7.66,7.66,0,0,0,.838.349l.4,1.99a1.3,1.3,0,0,0,1.274,1.045h1.766a1.3,1.3,0,0,0,1.274-1.045l.4-1.99a7.856,7.856,0,0,0,.837-.349l1.691,1.127a1.3,1.3,0,0,0,1.638-.162l1.249-1.249a1.3,1.3,0,0,0,.162-1.638L17.4,13.785a7.724,7.724,0,0,0,.349-.838l1.99-.4a1.3,1.3,0,0,0,1.045-1.274V9.509a1.3,1.3,0,0,0-1.045-1.274Zm-2.245,3.439a1.3,1.3,0,0,0-.972.847,6.594,6.594,0,0,1-.29.7,1.3,1.3,0,0,0,.088,1.287L17.445,16.2,16.2,17.447,14.5,16.319a1.3,1.3,0,0,0-1.286-.089,6.567,6.567,0,0,1-.7.292,1.3,1.3,0,0,0-.846.972l-.4,1.991H9.507l-.4-1.991a1.3,1.3,0,0,0-.847-.972,6.6,6.6,0,0,1-.7-.29,1.3,1.3,0,0,0-1.286.088L4.587,17.447,3.337,16.2l1.127-1.691a1.3,1.3,0,0,0,.089-1.286,6.563,6.563,0,0,1-.291-.7,1.3,1.3,0,0,0-.972-.846l-1.99-.4V9.509l1.991-.4a1.3,1.3,0,0,0,.972-.847,6.471,6.471,0,0,1,.29-.7,1.3,1.3,0,0,0-.088-1.286L3.337,4.588,4.586,3.339,6.277,4.465a1.3,1.3,0,0,0,1.286.089,6.552,6.552,0,0,1,.7-.291,1.3,1.3,0,0,0,.847-.972l.4-1.99h1.766l.4,1.991a1.3,1.3,0,0,0,.847.972,6.461,6.461,0,0,1,.7.29A1.3,1.3,0,0,0,14.5,4.465l1.691-1.127,1.249,1.249L16.317,6.279a1.3,1.3,0,0,0-.089,1.286,6.556,6.556,0,0,1,.292.7,1.3,1.3,0,0,0,.972.847l1.99.4,0,1.766Zm-7.1-5.828a4.546,4.546,0,1,0,4.546,4.546,4.547,4.547,0,0,0-4.546-4.546Zm0,8.524a3.978,3.978,0,1,1,3.978-3.978A3.979,3.979,0,0,1,10.391,14.37Zm0-6.576a2.6,2.6,0,1,0,2.6,2.6,2.6,2.6,0,0,0-2.6-2.6Zm0,4.547a1.948,1.948,0,1,1,1.948-1.948A1.949,1.949,0,0,1,10.391,12.341Z" transform="translate(3.736 3.734)" fill="#fff"/></svg>