<svg xmlns="http://www.w3.org/2000/svg" width="27.732" height="16.234" viewBox="0 0 27.732 16.234"><g transform="translate(0 0)"><path d="M.272,12.365a.194.194,0,0,0,.237-.137c.4-1.486,2.016-1.871,2.983-2.1a3.894,3.894,0,0,0,.558-.157A2.452,2.452,0,0,0,5.619,8.162a.193.193,0,0,0-.064-.183A5.008,5.008,0,0,1,4.192,5.885a.19.19,0,0,0-.04-.066,2.074,2.074,0,0,1-.636-1.273.5.5,0,0,1,.265-.47.193.193,0,0,0,.094-.158A3.467,3.467,0,0,1,7.084.388l.041,0A3.471,3.471,0,0,1,10.3,4a.192.192,0,0,0,.069.143.5.5,0,0,1,.177.409,1.869,1.869,0,0,1-.464,1.072.2.2,0,0,0-.032.061A5.032,5.032,0,0,1,8.524,8.055a.194.194,0,0,0-.069.187,2.453,2.453,0,0,0,1.568,1.809,3.63,3.63,0,0,0,.589.156c.958.207,2.56.555,2.953,2.023a.193.193,0,0,0,.186.143.206.206,0,0,0,.05-.007.194.194,0,0,0,.137-.237c-.454-1.7-2.27-2.089-3.244-2.3a3.592,3.592,0,0,1-.516-.133A2.1,2.1,0,0,1,8.86,8.278,5.486,5.486,0,0,0,10.4,5.829a2.216,2.216,0,0,0,.525-1.282.882.882,0,0,0-.249-.643A3.844,3.844,0,0,0,7.125,0H7.067A3.832,3.832,0,0,0,3.5,3.8a.874.874,0,0,0-.365.744,2.418,2.418,0,0,0,.711,1.506A5.451,5.451,0,0,0,5.217,8.2,2.1,2.1,0,0,1,3.9,9.616a3.8,3.8,0,0,1-.494.136c-.982.233-2.81.668-3.268,2.376a.193.193,0,0,0,.137.237Z" transform="translate(13.787 3.862)" fill="#9f9f9f"/><path d="M.272,12.365a.194.194,0,0,0,.237-.137c.4-1.486,2.016-1.871,2.983-2.1a3.894,3.894,0,0,0,.558-.157A2.452,2.452,0,0,0,5.619,8.162a.193.193,0,0,0-.064-.183A5.008,5.008,0,0,1,4.192,5.885a.19.19,0,0,0-.04-.066,2.074,2.074,0,0,1-.636-1.273.5.5,0,0,1,.265-.47.193.193,0,0,0,.094-.158A3.467,3.467,0,0,1,7.084.388l.041,0A3.471,3.471,0,0,1,10.3,4a.192.192,0,0,0,.069.143.5.5,0,0,1,.177.409,1.869,1.869,0,0,1-.464,1.072.2.2,0,0,0-.032.061A5.032,5.032,0,0,1,8.524,8.055a.194.194,0,0,0-.069.187,2.453,2.453,0,0,0,1.568,1.809,3.63,3.63,0,0,0,.589.156c.958.207,2.56.555,2.953,2.023a.193.193,0,0,0,.186.143.206.206,0,0,0,.05-.007.194.194,0,0,0,.137-.237c-.454-1.7-2.27-2.089-3.244-2.3a3.592,3.592,0,0,1-.516-.133A2.1,2.1,0,0,1,8.86,8.278,5.486,5.486,0,0,0,10.4,5.829a2.216,2.216,0,0,0,.525-1.282.882.882,0,0,0-.249-.643A3.844,3.844,0,0,0,7.125,0H7.067A3.832,3.832,0,0,0,3.5,3.8a.874.874,0,0,0-.365.744,2.418,2.418,0,0,0,.711,1.506A5.451,5.451,0,0,0,5.217,8.2,2.1,2.1,0,0,1,3.9,9.616a3.8,3.8,0,0,1-.494.136c-.982.233-2.81.668-3.268,2.376a.193.193,0,0,0,.137.237Z" transform="translate(-0.129 3.862)" fill="#9f9f9f"/><path d="M.317,16.229a.255.255,0,0,0,.311-.18c.523-1.95,2.646-2.455,3.916-2.758a5.111,5.111,0,0,0,.733-.206,3.218,3.218,0,0,0,2.058-2.374.254.254,0,0,0-.084-.24A6.573,6.573,0,0,1,5.462,7.724a.25.25,0,0,0-.052-.087,2.722,2.722,0,0,1-.835-1.671.653.653,0,0,1,.348-.617.254.254,0,0,0,.123-.207A4.551,4.551,0,0,1,9.257.509l.054,0c2.269.031,4.1,2.11,4.164,4.731a.253.253,0,0,0,.09.187.652.652,0,0,1,.233.536,2.453,2.453,0,0,1-.609,1.406.265.265,0,0,0-.043.08,6.6,6.6,0,0,1-2,3.118.255.255,0,0,0-.09.245,3.22,3.22,0,0,0,2.058,2.374,4.764,4.764,0,0,0,.773.2c1.257.272,3.36.728,3.876,2.655a.254.254,0,0,0,.245.188.271.271,0,0,0,.066-.009.254.254,0,0,0,.18-.311c-.6-2.226-2.979-2.742-4.258-3.019a4.715,4.715,0,0,1-.678-.175,2.759,2.759,0,0,1-1.731-1.86,7.2,7.2,0,0,0,2.028-3.215,2.908,2.908,0,0,0,.69-1.683,1.158,1.158,0,0,0-.327-.844A5.046,5.046,0,0,0,9.312,0H9.236A5.03,5.03,0,0,0,4.548,4.991a1.147,1.147,0,0,0-.479.976A3.173,3.173,0,0,0,5,7.944a7.155,7.155,0,0,0,1.8,2.812,2.758,2.758,0,0,1-1.732,1.865,4.992,4.992,0,0,1-.648.179c-1.289.306-3.688.877-4.289,3.119a.254.254,0,0,0,.18.311Z" transform="translate(4.67 -0.003)" fill="#9f9f9f"/></g></svg>