<svg xmlns="http://www.w3.org/2000/svg" width="79.532" height="24.483" viewBox="0 0 79.532 24.483"><g transform="translate(27.803 0.407)"><path d="M20.764,16.8l-4.042,23.72h6.465L27.232,16.8Z" transform="translate(-16.722 -16.799)" fill="#009ea1"/></g><g transform="translate(6.421 0.429)"><path d="M19.824,16.817,13.492,32.993l-.675-2.442c-1.249-2.943-4.794-7.169-8.955-9.833L9.651,40.5l6.84-.012L26.672,16.812Z" transform="translate(-3.862 -16.812)" fill="#009ea1"/></g><g transform="translate(0 0.205)"><path d="M12.922,18.6c-.376-1.445-1.465-1.876-2.817-1.927H.083L0,17.149C7.8,19.041,12.961,23.6,15.1,29.082Z" transform="translate(0 -16.677)" fill="#009ea1"/></g><g transform="translate(38.313 0)"><path d="M36.145,21.509a11.935,11.935,0,0,1,4.838.908l.584.274.875-5.141a16.687,16.687,0,0,0-5.791-1c-6.388,0-10.891,3.217-10.925,7.828-.042,3.407,3.207,5.309,5.661,6.445,2.519,1.164,3.364,1.9,3.352,2.943-.02,1.588-2.009,2.316-3.866,2.316a13.57,13.57,0,0,1-6.087-1.242l-.833-.379-.909,5.309a20.474,20.474,0,0,0,7.2,1.264c6.8,0,11.211-3.179,11.258-8.106.028-2.7-1.7-4.752-5.432-6.44-2.261-1.1-3.645-1.832-3.631-2.943C32.44,22.563,33.614,21.509,36.145,21.509Z" transform="translate(-23.043 -16.554)" fill="#009ea1"/></g><g transform="translate(56.322 0.434)"><path d="M51.854,16.815H46.86a3.216,3.216,0,0,0-3.387,1.969l-9.6,21.738h6.789s1.107-2.923,1.358-3.563c.743,0,7.339.01,8.279.01.193.828.788,3.553.788,3.553h6ZM43.882,32.1c.532-1.362,2.575-6.629,2.575-6.629-.035.065.527-1.372.861-2.265l.436,2.045,1.5,6.849Z" transform="translate(-33.874 -16.815)" fill="#009ea1"/></g></svg>