<svg xmlns="http://www.w3.org/2000/svg" width="13.57" height="13.621" viewBox="0 0 13.57 13.621"><g transform="translate(-0.911 0)"><path d="M3.661,9.055A14.451,14.451,0,0,0,8.468,12.82a7.481,7.481,0,0,0,2.69.8c.065,0,.127.006.192.006a2.227,2.227,0,0,0,1.727-.742.062.062,0,0,0,.011-.014,7.272,7.272,0,0,1,.545-.565c.133-.127.268-.26.4-.4a1.363,1.363,0,0,0-.006-2.029l-1.7-1.7a1.373,1.373,0,0,0-.994-.457,1.419,1.419,0,0,0-1,.454l-1.01,1.01c-.093-.054-.189-.1-.279-.147a3.49,3.49,0,0,1-.31-.169A10.694,10.694,0,0,1,6.176,6.545a6.158,6.158,0,0,1-.864-1.377c.265-.24.514-.491.754-.737.085-.087.172-.175.26-.262a1.447,1.447,0,0,0,.469-1.016,1.436,1.436,0,0,0-.469-1.016L5.485,1.3C5.386,1.2,5.293,1.1,5.2,1,5.011.81,4.816.612,4.624.435A1.407,1.407,0,0,0,3.63,0a1.449,1.449,0,0,0-1,.437L1.57,1.493A2.169,2.169,0,0,0,.924,2.882,5.224,5.224,0,0,0,1.316,5.14,13.136,13.136,0,0,0,3.661,9.055ZM1.612,2.941a1.493,1.493,0,0,1,.449-.96L3.111.931A.76.76,0,0,1,3.63.692a.721.721,0,0,1,.508.246c.189.175.367.358.559.553l.294.3.841.841a.766.766,0,0,1,.265.528.766.766,0,0,1-.265.528l-.262.265c-.262.265-.508.517-.779.756l-.014.014a.552.552,0,0,0-.141.627l.008.023a6.643,6.643,0,0,0,.991,1.612A11.287,11.287,0,0,0,8.355,9.461a4.04,4.04,0,0,0,.373.2,3.49,3.49,0,0,1,.31.169l.031.017a.59.59,0,0,0,.274.071.6.6,0,0,0,.421-.192l1.056-1.056a.747.747,0,0,1,.517-.251.709.709,0,0,1,.5.251l1.7,1.7a.681.681,0,0,1-.008,1.064c-.119.127-.243.248-.375.375a8.127,8.127,0,0,0-.59.612,1.55,1.55,0,0,1-1.211.514c-.048,0-.1,0-.147-.006A6.8,6.8,0,0,1,8.773,12.2,13.728,13.728,0,0,1,4.2,8.62a12.574,12.574,0,0,1-2.23-3.712A4.552,4.552,0,0,1,1.612,2.941Z" transform="translate(0 0)" fill="#9f9f9f"/></g></svg>