<svg xmlns="http://www.w3.org/2000/svg" width="16.134" height="16.059" viewBox="0 0 16.134 16.059"><path d="M0,15.824a.251.251,0,0,0,.251.251H15.882a.246.246,0,0,0,.1-.02A.258.258,0,0,0,16.06,16h0s0,0,0-.006a.253.253,0,0,0,.054-.1.265.265,0,0,0,.007-.035.226.226,0,0,0,.008-.037.233.233,0,0,0-.012-.056c0-.007,0-.014,0-.021l-1.588-4.881a.245.245,0,0,0-.061-.1l-8.6-8.6a.25.25,0,0,0-.028-.042L3.966.245a.784.784,0,0,0-1.107,0L.229,2.876a.783.783,0,0,0,0,1.107L2.066,5.819a.243.243,0,0,0,.027.041L10.68,14.5a.246.246,0,0,0,.107.064l3.373,1H.251A.251.251,0,0,0,0,15.824ZM3.2,5.113l7.882,7.781-.29,1.006L2.626,5.684l.57-.57Zm8.267,7.455L3.551,4.759,4.776,3.534,12.617,11.4v1.173ZM12.93,11l-7.8-7.82.522-.522L13.8,10.8l-.868.2Zm-1.38,2.072h1.318a.251.251,0,0,0,.251-.251V11.471l1.008-.229L15.5,15.447l-4.265-1.271ZM.5,3.429a.279.279,0,0,1,.082-.2L3.215.6a.281.281,0,0,1,.4,0L5.305,2.295,2.279,5.321.585,3.627a.277.277,0,0,1-.082-.2Z" transform="translate(0 -0.017)" fill="#cfcfcf"/></svg>