<svg xmlns="http://www.w3.org/2000/svg" width="34.892" height="27.963" viewBox="0 0 34.892 27.963"><g transform="translate(7.269 0)"><g transform="translate(0 2.465)" fill="#fff" stroke="#434343" stroke-width="1"><ellipse cx="12.514" cy="12.514" rx="12.514" ry="12.514" stroke="none"/><ellipse cx="12.514" cy="12.514" rx="12.014" ry="12.014" fill="none"/></g><g transform="translate(0.498 0)"><path d="M0-.144l4.774-3.7,4.852,3.7L7.634,4.844h-5.8Z" transform="translate(7.203 14.161)" fill="#434343"/><path d="M0,3.7,4.774,0,6.881,1.608a16.689,16.689,0,0,1-1.37,3.107,15.247,15.247,0,0,1-2.9,3.368l-.829.38Z" transform="matrix(0.616, -0.788, 0.788, 0.616, 16.218, 11.927)" fill="#434343"/><path d="M0,3.7,4.774,0,6.881,1.608A8.958,8.958,0,0,1,5.808,5,18.068,18.068,0,0,1,3.045,8.444L1.831,8.69Z" transform="translate(10.091 10.305) rotate(-120)" fill="#434343"/><path d="M0,3.7,4.774,0,5.948,1.233A8.549,8.549,0,0,1,5.04,5.088c-.959,1.709-2,3.356-2,3.356L1.831,8.69Z" transform="translate(5.948 15.273) rotate(-180)" fill="#434343"/><path d="M0,4.087,4.971,0l.693,1.925s.808,2.848-.151,4.557S4.859,8.49,4.859,8.49l-3.028.586Z" transform="translate(12.408 22.269) rotate(120)" fill="#434343"/><path d="M0,3.7,4.774,0,6.881,1.608A8.958,8.958,0,0,1,5.808,5,28.131,28.131,0,0,1,3.373,8.5L1.831,8.69Z" transform="translate(17.102 16.996) rotate(30)" fill="#434343"/></g></g><g transform="translate(0 13.486)" fill="#434343"><path d="M 9.126160621643066 13.93968200683594 L 5.313520908355713 13.93968200683594 L 5.313520908355713 9.626162528991699 L 5.313520908355713 9.126162528991699 L 4.813520908355713 9.126162528991699 L 0.5000010132789612 9.126162528991699 L 0.5000010132789612 5.313512325286865 L 4.813520908355713 5.313512325286865 L 5.313520908355713 5.313512325286865 L 5.313520908355713 4.813512325286865 L 5.313520908355713 0.5000024437904358 L 9.126160621643066 0.5000024437904358 L 9.126160621643066 4.813512325286865 L 9.126160621643066 5.313512325286865 L 9.626160621643066 5.313512325286865 L 13.93968105316162 5.313512325286865 L 13.93968105316162 9.126162528991699 L 9.626160621643066 9.126162528991699 L 9.126160621643066 9.126162528991699 L 9.126160621643066 9.626162528991699 L 9.126160621643066 13.93968200683594 Z" stroke="none"/><path d="M 8.626160621643066 13.43968200683594 L 8.626160621643066 9.626162528991699 L 8.626160621643066 8.626162528991699 L 9.626160621643066 8.626162528991699 L 13.43968105316162 8.626162528991699 L 13.43968105316162 5.813512325286865 L 9.626160621643066 5.813512325286865 L 8.626160621643066 5.813512325286865 L 8.626160621643066 4.813512325286865 L 8.626160621643066 1.000002384185791 L 5.813520908355713 1.000002384185791 L 5.813520908355713 4.813512325286865 L 5.813520908355713 5.813512325286865 L 4.813520908355713 5.813512325286865 L 1.000000953674316 5.813512325286865 L 1.000000953674316 8.626162528991699 L 4.813520908355713 8.626162528991699 L 5.813520908355713 8.626162528991699 L 5.813520908355713 9.626162528991699 L 5.813520908355713 13.43968200683594 L 8.626160621643066 13.43968200683594 M 9.626160621643066 14.43968200683594 L 4.813520908355713 14.43968200683594 L 4.813520908355713 9.626162528991699 L 1.003417992251343e-06 9.626162528991699 L 1.003417992251343e-06 4.813512325286865 L 4.813520908355713 4.813512325286865 L 4.813520908355713 2.433929466860718e-06 L 9.626160621643066 2.433929466860718e-06 L 9.626160621643066 4.813512325286865 L 14.43968105316162 4.813512325286865 L 14.43968105316162 9.626162528991699 L 9.626160621643066 9.626162528991699 L 9.626160621643066 14.43968200683594 Z" stroke="none" fill="#fcfcfc"/></g></svg>