<svg xmlns="http://www.w3.org/2000/svg" width="23.16" height="16.773" viewBox="0 0 23.16 16.773"><g transform="translate(0.004 0.002)"><path d="M23.157,10.157v-.114h0c-1.251-1.668-2.54-3.3-3.9-4.89a20.506,20.506,0,0,0-4.169-4.132c-2.35-1.478-5.42-.8-8.225,0V.984A1.605,1.605,0,0,0,4.925.075a1.165,1.165,0,0,0-.8.72.992.992,0,0,0,.379.872c-5.079.493-6.33,9.249-1.365,11.9a5.054,5.054,0,0,0,4.4.644.64.64,0,0,1,.19-.076.139.139,0,0,0,.114-.038c1.213-.606,2.426-1.175,3.639-1.781h0c1.668,1.516,3.411,2.994,5.231,4.4.114.076.19.076.265,0,2.047-.986,3.942-2.274,6.027-3.222.076-.038.152-.152.114-.227,0-1.023.038-2.085.038-3.108Zm-7.77-8.225a50.4,50.4,0,0,1,7.126,8.149,18.762,18.762,0,0,1-2.729,1.44c-.417.19-.834.341-1.251.531-.265.152-1.175.834-1.478.758-.417-.114-1.175-1.327-1.478-1.668-.644-.72-1.251-1.4-1.9-2.123C12.43,7.58,11.179,6.139,10,4.661A6.826,6.826,0,0,0,6.9,2.008a6.816,6.816,0,0,0-.834-.227C9.208.833,12.885-.191,15.386,1.932ZM4.735.795C4.849.53,5.38.53,5.607.53a1.138,1.138,0,0,1,.72.606c-.417.114-.834.265-1.213.379,0-.038-.038-.038-.038-.076C4.887,1.288,4.584,1.06,4.735.795ZM1.551,11.6C-.344,9.134.035,4.168,3.105,2.69a1.866,1.866,0,0,1,.644-.227h.076c.114-.038.19-.038.3-.076a4.906,4.906,0,0,1,4.245,1.1c.948.91,1.668,2.085,2.54,3.108q2.9,3.411,5.913,6.709c-.038.91-.076,1.819-.152,2.691a82.861,82.861,0,0,1-6.444-5.572.274.274,0,0,0-.417.038h0v.076h0c-.531,1.971-1.668,3.563-3.942,3.487A6.575,6.575,0,0,1,1.551,11.6Zm7.884,1.175a5.835,5.835,0,0,0,.758-1.706c.3.3.606.569.948.872C10.535,12.242,9.966,12.507,9.435,12.773ZM21.11,13.91c-1.327.758-2.577,1.478-3.942,2.161.038-.91.114-1.819.152-2.729,1.706-1.061,3.639-1.63,5.307-2.691,0,.606-.038,1.213,0,1.819C22.626,13.341,21.83,13.493,21.11,13.91Z" transform="translate(0 0)" fill="#fff"/><path d="M27.666,8.342h0c0,.038.038.038.038.076.606.72.834,1.4,1.744,1.061,1.365-.531,2.8-.91,4.132-1.516a.268.268,0,0,0,.038-.417c-.682-.72-.986-1.4-1.933-1.023-1.289.493-2.615.872-3.866,1.478h-.038a.218.218,0,0,0-.114.3Zm4.283-1.365a1.3,1.3,0,0,1,1.061.644c-1.061.455-2.161.72-3.222,1.137-.152.076-.682.379-.8.341-.152-.038-.455-.455-.682-.758A22.874,22.874,0,0,1,31,7.357,2.271,2.271,0,0,1,31.949,6.977Z" transform="translate(-17.169 -3.984)" fill="#fff"/><path d="M10.186,12.724c-1.781-.3-2.577.91-2.8,2.5-.265,1.819.152,3.184,2.009,3.828C13.029,20.266,13.673,13.406,10.186,12.724Zm-.644,5.8A2.23,2.23,0,0,1,7.874,15.87c.076-1.289.417-2.919,2.2-2.653a2.527,2.527,0,0,1,1.9,2.729C11.93,17.424,11.323,19.053,9.542,18.523Z" transform="translate(-4.541 -7.873)" fill="#fff"/><path d="M45.446,27.868a35.08,35.08,0,0,1,4.018-1.819c.3-.114.19-.644-.152-.493a36.654,36.654,0,0,0-4.132,1.9C44.877,27.565,45.143,28.019,45.446,27.868Z" transform="translate(-27.975 -15.853)" fill="#fff"/><path d="M4.4,9.426A4.98,4.98,0,0,0,2.5,13.52a.266.266,0,0,0,.531,0,4.337,4.337,0,0,1,1.63-3.6C4.926,9.691,4.661,9.237,4.4,9.426Z" transform="translate(-1.555 -5.826)" fill="#fff"/><path d="M9.581,8.631a.266.266,0,0,0,0-.531A.266.266,0,0,0,9.581,8.631Z" transform="translate(-5.793 -5.031)" fill="#fff"/></g></svg>