<svg xmlns="http://www.w3.org/2000/svg" width="68" height="77.714" viewBox="0 0 68 77.714"><g transform="translate(-32)"><g transform="translate(32)"><g transform="translate(0)"><circle cx="3.036" cy="3.036" r="3.036" transform="translate(48.268 49.482)" fill="#fff"/><path d="M96.964,54.946A3.036,3.036,0,0,0,100,51.911V40.679A12.157,12.157,0,0,0,87.857,28.536H84.209V17.83a18.218,18.218,0,0,0-36.429,0V28.536H44.143A12.157,12.157,0,0,0,32,40.679V65.571A12.157,12.157,0,0,0,44.143,77.714H87.857A12.157,12.157,0,0,0,100,65.571a3.036,3.036,0,1,0-6.071,0,6.078,6.078,0,0,1-6.071,6.071H44.143a6.078,6.078,0,0,1-6.071-6.071V40.679a6.078,6.078,0,0,1,6.071-6.071H87.857a6.078,6.078,0,0,1,6.071,6.071V51.911A3.036,3.036,0,0,0,96.964,54.946ZM78.137,28.536H53.852V17.83a12.149,12.149,0,0,1,24.286,0Z" transform="translate(-32)" fill="#fff"/><circle cx="3.036" cy="3.036" r="3.036" transform="translate(25.348 49.482)" fill="#fff"/><circle cx="3.036" cy="3.036" r="3.036" transform="translate(13.964 49.482)" fill="#fff"/><circle cx="3.036" cy="3.036" r="3.036" transform="translate(36.732 49.482)" fill="#fff"/></g></g></g></svg>