<svg xmlns="http://www.w3.org/2000/svg" width="49.784" height="40.406" viewBox="0 0 49.784 40.406"><g transform="translate(0 -46.15)"><g transform="translate(0 46.15)"><path d="M0,58.515V80.481a6.079,6.079,0,0,0,6.076,6.076H43.708a6.079,6.079,0,0,0,6.076-6.076V58.515A5.784,5.784,0,0,0,44,52.734H35.916l-.193-.843a7.385,7.385,0,0,0-7.234-5.74h-7.2a7.4,7.4,0,0,0-7.234,5.74l-.193.843H5.781A5.791,5.791,0,0,0,0,58.515Zm14.854-3.292a1.238,1.238,0,0,0,1.209-.965l.417-1.808a4.914,4.914,0,0,1,4.806-3.81h7.2a4.914,4.914,0,0,1,4.806,3.81l.417,1.808a1.249,1.249,0,0,0,1.209.965h9.073a3.291,3.291,0,0,1,3.292,3.292V80.481A3.586,3.586,0,0,1,43.7,84.067H6.076a3.586,3.586,0,0,1-3.586-3.586V58.515a3.291,3.291,0,0,1,3.292-3.292Z" transform="translate(0 -46.15)" fill="#434343"/><circle cx="1.666" cy="1.666" r="1.666" transform="translate(6.756 12.72)" fill="#434343"/><path d="M152.555,196.059A10.455,10.455,0,1,0,142.1,185.6,10.472,10.472,0,0,0,152.555,196.059Zm0-18.42a7.965,7.965,0,1,1-7.965,7.965A7.978,7.978,0,0,1,152.555,177.639Z" transform="translate(-127.663 -162.044)" fill="#434343"/></g></g></svg>