<svg xmlns="http://www.w3.org/2000/svg" width="24" height="24" viewBox="0 0 24 24"><g transform="translate(-44 -500)"><g transform="translate(44 500)" fill="#fff" stroke="#707070" stroke-width="1" opacity="0"><rect width="24" height="24" stroke="none"/><rect x="0.5" y="0.5" width="23" height="23" fill="none"/></g><path d="M17.179,13.964H3.821L2,15.786v.607L2.607,17H8.071a2.429,2.429,0,1,0,4.857,0h5.464L19,16.393v-.607Zm-.607-4.857a6.071,6.071,0,0,0-3.643-5.563V2.429a2.429,2.429,0,0,0-4.857,0V3.545A6.071,6.071,0,0,0,4.429,9.107v4.25H16.571ZM9.286,2.429a1.214,1.214,0,0,1,2.429,0Z" transform="translate(46 502)" fill="none" stroke="#fff" stroke-width="1"/></g></svg>