<svg xmlns="http://www.w3.org/2000/svg" width="68" height="68" viewBox="0 0 68 68"><path d="M62.023,16.2H44.094V5.977A5.983,5.983,0,0,0,38.117,0H5.977A5.983,5.983,0,0,0,0,5.977V62.023A5.983,5.983,0,0,0,5.977,68H38.117a5.983,5.983,0,0,0,5.977-5.977V50.9l6.8-6.8H62.023A5.983,5.983,0,0,0,68,38.117V22.18A5.983,5.983,0,0,0,62.023,16.2ZM3.984,5.977A1.994,1.994,0,0,1,5.977,3.984H38.117a1.994,1.994,0,0,1,1.992,1.992V7.969H3.984ZM40.109,62.023a1.994,1.994,0,0,1-1.992,1.992H5.977a1.994,1.994,0,0,1-1.992-1.992V56.047H40.109Zm0-9.961H3.984V11.953H40.109V16.2H38.117a5.983,5.983,0,0,0-5.977,5.977V38.117a5.983,5.983,0,0,0,5.977,5.977h1.992ZM64.016,38.117a1.994,1.994,0,0,1-1.992,1.992H50.07a1.992,1.992,0,0,0-1.409.583l-4.568,4.568V42.1h0A1.992,1.992,0,0,0,42.1,40.109H38.117a1.994,1.994,0,0,1-1.992-1.992V22.18a1.994,1.994,0,0,1,1.992-1.992H62.023a1.994,1.994,0,0,1,1.992,1.992Z" fill="#fff"/><g transform="translate(40.109 24.172)"><path d="M319.93,182H303.992a1.992,1.992,0,0,0,0,3.984H319.93a1.992,1.992,0,0,0,0-3.984Z" transform="translate(-302 -182)" fill="#fff"/></g><g transform="translate(40.109 32.141)"><path d="M311.961,242h-7.969a1.992,1.992,0,1,0,0,3.984h7.969a1.992,1.992,0,1,0,0-3.984Z" transform="translate(-302 -242)" fill="#fff"/></g></svg>