<svg xmlns="http://www.w3.org/2000/svg" width="25.73" height="25.731" viewBox="0 0 25.73 25.731"><path d="M12.865,0A12.865,12.865,0,1,0,25.731,12.865,12.865,12.865,0,0,0,12.865,0Zm9.963,6.171-.892,3.79-4.7,1.566L13.294,8.371V3.721l4.5-1.8a12.08,12.08,0,0,1,5.032,4.251ZM22.9,19.446l-4.253.672-2.316-3.059,1.18-4.717,4.645-1.548,2.661,3.193a11.929,11.929,0,0,1-1.917,5.46ZM7.1,20.12,2.83,19.446A11.931,11.931,0,0,1,.913,13.985l2.659-3.193L8.218,12.34,9.4,17.06ZM.861,12.705a11.93,11.93,0,0,1,1.407-5.48l.7,2.959Zm9.337,4.02L9.061,12.17l3.8-3.044,3.806,3.045-1.138,4.554Zm12.568-6.542.7-2.959a11.929,11.929,0,0,1,1.407,5.48ZM16.627,1.465l-3.762,1.5-3.782-1.5a11.964,11.964,0,0,1,7.545-.007ZM7.913,1.93l4.523,1.793V8.371L8.491,11.527l-4.7-1.566L2.9,6.171A12.083,12.083,0,0,1,7.913,1.93Zm-4.366,18.5,3.486.551,2.108,3.3a12.047,12.047,0,0,1-5.594-3.853Zm6.824,4.183L7.812,20.6l2.266-3.022h5.575l2.3,3.036-2.23,3.908a11.97,11.97,0,0,1-5.35.086Zm6.542-.441,1.828-3.2,3.445-.543A12.054,12.054,0,0,1,16.913,24.169Zm0,0"/></svg>