<svg xmlns="http://www.w3.org/2000/svg" width="32.052" height="32.052" viewBox="0 0 32.052 32.052"><g transform="translate(-0.001 0)"><path d="M32.031,26.381a2.459,2.459,0,0,0-1.22-1.822L22.9,20.006a2.481,2.481,0,0,0-2.988.4l-1.558,1.558a1.141,1.141,0,0,1-1.525.085,45.016,45.016,0,0,1-3.593-3.232,45.031,45.031,0,0,1-3.232-3.593,1.141,1.141,0,0,1,.085-1.525l1.557-1.558a2.481,2.481,0,0,0,.4-2.988L7.494,1.241A2.477,2.477,0,0,0,3.6.726L1.249,3.073C-.389,4.711-.416,7.707,1.175,11.51A37.261,37.261,0,0,0,9.209,22.843a37.26,37.26,0,0,0,11.334,8.035,13.217,13.217,0,0,0,4.963,1.174A4.734,4.734,0,0,0,28.98,30.8l2.347-2.347a2.46,2.46,0,0,0,.7-2.076Zm-9.645-5.475,7.907,4.553a1.438,1.438,0,0,1,.439,2.1l-10.509-6,.427-.427A1.441,1.441,0,0,1,22.386,20.906ZM5.536,1.051a1.428,1.428,0,0,1,1.058.708l4.553,7.907a1.441,1.441,0,0,1-.229,1.735l-.392.392L4.495,1.32a1.421,1.421,0,0,1,.849-.282,1.466,1.466,0,0,1,.192.013ZM28.246,30.07c-1.3,1.3-3.963,1.247-7.3-.15a36.212,36.212,0,0,1-11-7.811,36.212,36.212,0,0,1-7.811-11c-1.4-3.339-1.451-6-.15-7.3L3.725,2.065l6.04,10.49-.405.405a2.178,2.178,0,0,0-.16,2.91,46.069,46.069,0,0,0,3.307,3.676,46.094,46.094,0,0,0,3.677,3.307,2.178,2.178,0,0,0,2.91-.16l.37-.37,10.524,6.006-1.74,1.74Z" transform="translate(0 0)" fill="#434343"/></g></svg>