<svg xmlns="http://www.w3.org/2000/svg" width="10.907" height="10.907" viewBox="0 0 10.907 10.907"><path d="M10.907,5.453A5.453,5.453,0,1,0,1.77,9.471l-.005,0,.177.149.035.027c.094.078.191.152.291.223l.1.069q.159.109.326.208l.073.042c.122.069.246.134.373.194l.028.013a5.4,5.4,0,0,0,1.319.417l.036.007c.144.025.289.045.436.058l.054,0c.146.012.294.02.444.02s.3-.008.441-.019l.055,0q.219-.02.432-.057l.037-.007a5.4,5.4,0,0,0,1.3-.408l.045-.021q.184-.086.359-.186l.087-.05c.107-.063.212-.129.314-.2.037-.025.073-.051.109-.078.087-.063.173-.127.256-.195.018-.015.038-.028.056-.043l.181-.152-.005,0A5.439,5.439,0,0,0,10.907,5.453ZM.4,5.453a5.057,5.057,0,1,1,8.41,3.78,1.486,1.486,0,0,0-.177-.106L6.951,8.288a.44.44,0,0,1-.244-.4V7.306c.039-.048.08-.1.122-.162a4.041,4.041,0,0,0,.519-1.016.72.72,0,0,0,.413-.652v-.7a.722.722,0,0,0-.176-.47V3.378a1.6,1.6,0,0,0-.373-1.163,2.232,2.232,0,0,0-1.758-.628A2.233,2.233,0,0,0,3.7,2.215a1.6,1.6,0,0,0-.373,1.163V4.3a.723.723,0,0,0-.176.47v.7a.721.721,0,0,0,.266.559A3.726,3.726,0,0,0,4.025,7.3v.574a.442.442,0,0,1-.23.388L2.226,9.12a1.433,1.433,0,0,0-.149.094A5.045,5.045,0,0,1,.4,5.453ZM8.42,9.545c-.069.05-.14.1-.212.146l-.1.064c-.094.058-.189.113-.286.165l-.065.033a5.053,5.053,0,0,1-.692.293l-.025.009q-.187.062-.378.109h0c-.129.032-.259.058-.389.08l-.011,0c-.123.02-.247.035-.372.045l-.066,0c-.123.009-.247.015-.371.015s-.251-.006-.376-.015l-.065,0c-.126-.011-.251-.026-.375-.046l-.017,0a5.038,5.038,0,0,1-.771-.193l-.023-.008q-.187-.064-.369-.141h0c-.115-.049-.227-.1-.338-.162l-.043-.022c-.1-.054-.2-.113-.3-.174l-.086-.055c-.09-.059-.179-.12-.265-.185L2.4,9.479l.019-.011,1.568-.855a.839.839,0,0,0,.437-.737V7.162l-.046-.055a3.311,3.311,0,0,1-.6-1.233L3.762,5.8l-.068-.044a.329.329,0,0,1-.152-.276v-.7a.324.324,0,0,1,.11-.243l.065-.059v-1.1l0-.026a1.194,1.194,0,0,1,.277-.865,1.869,1.869,0,0,1,1.46-.493,1.873,1.873,0,0,1,1.457.489,1.214,1.214,0,0,1,.28.869l0,1.131.065.059a.324.324,0,0,1,.11.243v.7a.331.331,0,0,1-.234.312l-.1.03L7,5.917a3.669,3.669,0,0,1-.495,1c-.052.073-.1.138-.146.188l-.049.056v.734a.834.834,0,0,0,.464.75l1.679.839.032.016Z" fill="#9f9f9f"/></svg>