<svg xmlns="http://www.w3.org/2000/svg" width="32.053" height="33.536" viewBox="0 0 32.053 33.536"><g transform="translate(-11.329)"><g transform="translate(11.329)"><path d="M32.527,19.333l3.156-10.9H33.873l-.629,2.256a4.6,4.6,0,0,0-1.21-1.86,4.911,4.911,0,0,0-3.455-1.182A6.693,6.693,0,0,0,24.76,8.815a10.521,10.521,0,0,0-2.869,2.911A14.913,14.913,0,0,0,19.46,19.7a7.963,7.963,0,0,0,.3,2.167,5.38,5.38,0,0,0,.973,1.921,5.117,5.117,0,0,0,1.688,1.356,5.31,5.31,0,0,0,2.443.527,5.918,5.918,0,0,0,2.187-.4,7.921,7.921,0,0,0,1.778-.97A7.039,7.039,0,0,0,30.2,22.971c.073-.093.144-.187.214-.281a2.934,2.934,0,0,0,.977,1.96,4.5,4.5,0,0,0,3.015,1.018,8.126,8.126,0,0,0,3.861-.9A8.23,8.23,0,0,0,41.086,22.3,11.491,11.491,0,0,0,42.8,18.628a16.928,16.928,0,0,0,.586-4.527,13.739,13.739,0,0,0-1.154-5.613A13.412,13.412,0,0,0,39,4,15.033,15.033,0,0,0,34.09,1.052,17.744,17.744,0,0,0,27.9,0a16.307,16.307,0,0,0-6.514,1.3A16.63,16.63,0,0,0,11.329,16.724a17.658,17.658,0,0,0,1.209,6.54,16.384,16.384,0,0,0,3.41,5.336,15.946,15.946,0,0,0,5.3,3.614A17.353,17.353,0,0,0,28.1,33.536a16.589,16.589,0,0,0,7.489-1.7A18.219,18.219,0,0,0,41.4,27.268l.268-.317-1.291-1.118-.274.325a16.714,16.714,0,0,1-5.225,4.072A14.772,14.772,0,0,1,28.1,31.823a15.3,15.3,0,0,1-6.084-1.189,14.38,14.38,0,0,1-4.736-3.249,14.679,14.679,0,0,1-3.06-4.8,15.867,15.867,0,0,1-1.085-5.857,14.953,14.953,0,0,1,1.106-5.656A15.557,15.557,0,0,1,17.3,6.259a14.759,14.759,0,0,1,4.655-3.315,14.17,14.17,0,0,1,5.924-1.23,15.575,15.575,0,0,1,5.449.936,13.373,13.373,0,0,1,4.345,2.6,12.126,12.126,0,0,1,2.872,3.929A11.744,11.744,0,0,1,41.578,14.1a16.058,16.058,0,0,1-.425,3.706,10.283,10.283,0,0,1-1.3,3.151,6.774,6.774,0,0,1-2.223,2.182,6.164,6.164,0,0,1-3.236.814,2.816,2.816,0,0,1-1.677-.487,1.873,1.873,0,0,1-.613-1.629,6.959,6.959,0,0,1,.126-1.194A13.033,13.033,0,0,1,32.527,19.333Zm-.859-3.041a16.283,16.283,0,0,1-1.385,3.536,11.048,11.048,0,0,1-2.252,2.947,4.189,4.189,0,0,1-2.951,1.179A3.378,3.378,0,0,1,22.2,22.785a4.858,4.858,0,0,1-.941-3.043,13.223,13.223,0,0,1,.51-3.5,13.1,13.1,0,0,1,1.461-3.389,8.818,8.818,0,0,1,2.316-2.525,5.045,5.045,0,0,1,3.031-.969,3.838,3.838,0,0,1,1.613.309,2.924,2.924,0,0,1,1.073.842,3.85,3.85,0,0,1,.65,1.281,5.476,5.476,0,0,1,.223,1.563A12.37,12.37,0,0,1,31.669,16.291Z" transform="translate(-11.329)" fill="#434343"/></g></g></svg>