<svg xmlns="http://www.w3.org/2000/svg" width="36.768" height="22.582" viewBox="0 0 36.768 22.582"><g transform="translate(0.564)"><path d="M3659.627,2214.07h-5.272v-10.276h5.272" transform="translate(-3624.143 -2198.668)" fill="none" stroke="#434343" stroke-width="1"/><path d="M5.272,10.276H0V0H5.272" transform="translate(12.946 15.402) rotate(180)" fill="none" stroke="#434343" stroke-width="1"/><g transform="translate(16.369 4.508)" fill="none" stroke="#434343" stroke-width="1"><circle cx="5.409" cy="5.409" r="5.409" stroke="none"/><circle cx="5.409" cy="5.409" r="4.909" fill="none"/></g><g transform="translate(7.354)" fill="none" stroke="#434343" stroke-width="1"><rect width="28.848" height="20.735" rx="2" stroke="none"/><rect x="0.5" y="0.5" width="27.848" height="19.735" rx="1.5" fill="none"/></g><line y2="20.735" transform="translate(22.229 0.451)" fill="none" stroke="#434343" stroke-width="1"/><path d="M3622.252,2217.139s6.2,3.828,10.223.581c.5-.406-.34-1.066-.34-1.066l-.581-.581-1.5-.872,9.448-3.44-1.89,9.786-2.325-2.374s-6.444,5.378-13.9,2.083c-.1-.043-.538-.246-.538-.246l.712-3.778Z" transform="translate(-3620.842 -2200.257)" fill="#434343" stroke="#434343" stroke-width="1"/></g></svg>